C:\Users\Nicos\Documents\OpenSimProjects\SprintingProject\Study1\PredictiveResults\IC_pred_Sprinting_optimum_27-October-2023__11-17-52_p02_maxVel_01___IKTD_Plus_2_GRF.mot
version=1
nRows=7
nColumns=127
inDegrees=yes
endheader
time	ground_force_vx	ground_force_vy	ground_force_vz	ground_force_px	ground_force_py	ground_force_pz	ground_torque_x	ground_torque_y	ground_torque_z	1_ground_force_vx	1_ground_force_vy	1_ground_force_vz	1_ground_force_px	1_ground_force_py	1_ground_force_pz	1_ground_torque_x	1_ground_torque_y	1_ground_torque_z	2_ground_force_vx	2_ground_force_vy	2_ground_force_vz	2_ground_force_px	2_ground_force_py	2_ground_force_pz	2_ground_torque_x	2_ground_torque_y	2_ground_torque_z	3_ground_force_vx	3_ground_force_vy	3_ground_force_vz	3_ground_force_px	3_ground_force_py	3_ground_force_pz	3_ground_torque_x	3_ground_torque_y	3_ground_torque_z	4_ground_force_vx	4_ground_force_vy	4_ground_force_vz	4_ground_force_px	4_ground_force_py	4_ground_force_pz	4_ground_torque_x	4_ground_torque_y	4_ground_torque_z	5_ground_force_vx	5_ground_force_vy	5_ground_force_vz	5_ground_force_px	5_ground_force_py	5_ground_force_pz	5_ground_torque_x	5_ground_torque_y	5_ground_torque_z	6_ground_force_vx	6_ground_force_vy	6_ground_force_vz	6_ground_force_px	6_ground_force_py	6_ground_force_pz	6_ground_torque_x	6_ground_torque_y	6_ground_torque_z	7_ground_force_vx	7_ground_force_vy	7_ground_force_vz	7_ground_force_px	7_ground_force_py	7_ground_force_pz	7_ground_torque_x	7_ground_torque_y	7_ground_torque_z	8_ground_force_vx	8_ground_force_vy	8_ground_force_vz	8_ground_force_px	8_ground_force_py	8_ground_force_pz	8_ground_torque_x	8_ground_torque_y	8_ground_torque_z	9_ground_force_vx	9_ground_force_vy	9_ground_force_vz	9_ground_force_px	9_ground_force_py	9_ground_force_pz	9_ground_torque_x	9_ground_torque_y	9_ground_torque_z	10_ground_force_vx	10_ground_force_vy	10_ground_force_vz	10_ground_force_px	10_ground_force_py	10_ground_force_pz	10_ground_torque_x	10_ground_torque_y	10_ground_torque_z	11_ground_force_vx	11_ground_force_vy	11_ground_force_vz	11_ground_force_px	11_ground_force_py	11_ground_force_pz	11_ground_torque_x	11_ground_torque_y	11_ground_torque_z	12_ground_force_vx	12_ground_force_vy	12_ground_force_vz	12_ground_force_px	12_ground_force_py	12_ground_force_pz	12_ground_torque_x	12_ground_torque_y	12_ground_torque_z	13_ground_force_vx	13_ground_force_vy	13_ground_force_vz	13_ground_force_px	13_ground_force_py	13_ground_force_pz	13_ground_torque_x	13_ground_torque_y	13_ground_torque_z
0.212937	-0.000000	0.000000	-0.000000	1.099057	0.212817	0.414684	0.000000	0.000000	0.000000	-0.000000	0.000000	-0.000000	1.123484	0.231631	0.436006	0.000000	0.000000	0.000000	-0.000000	0.000000	-0.000000	1.140718	0.240669	0.433852	0.000000	0.000000	0.000000	-0.000000	0.000000	-0.000000	1.137342	0.239406	0.411520	0.000000	0.000000	0.000000	-0.000000	0.000000	-0.000000	1.182066	0.278605	0.464816	0.000000	0.000000	0.000000	-0.000000	0.000000	-0.000000	1.153717	0.253957	0.428881	0.000000	0.000000	0.000000	-0.000000	0.000000	-0.000000	1.205714	0.307111	0.408999	0.000000	0.000000	0.000000	-0.000000	0.000000	0.000000	2.436940	0.082385	0.151987	0.000000	0.000000	0.000000	-0.000000	0.000000	0.000000	2.394326	0.088675	0.129782	0.000000	0.000000	0.000000	-0.000000	0.000000	0.000000	2.361855	0.087861	0.136360	0.000000	0.000000	0.000000	-0.000000	0.000000	0.000000	2.363640	0.082593	0.156418	0.000000	0.000000	0.000000	-0.000000	0.000000	0.000000	2.278944	0.100278	0.105798	0.000000	0.000000	0.000000	-0.000000	0.000000	0.000000	2.332089	0.088606	0.139793	0.000000	0.000000	0.000000	-0.000000	0.000000	0.000000	2.213026	0.091587	0.153525	0.000000	0.000000	0.000000
0.214417	-0.000000	0.000000	-0.000000	1.120274	0.215154	0.415320	0.000000	0.000000	0.000000	-0.000000	0.000000	-0.000000	1.144847	0.233948	0.436547	0.000000	0.000000	0.000000	-0.000000	0.000000	-0.000000	1.162117	0.242965	0.434332	0.000000	0.000000	0.000000	-0.000000	0.000000	-0.000000	1.158674	0.241698	0.412011	0.000000	0.000000	0.000000	-0.000000	0.000000	-0.000000	1.203725	0.280864	0.465126	0.000000	0.000000	0.000000	-0.000000	0.000000	-0.000000	1.175164	0.256237	0.429306	0.000000	0.000000	0.000000	-0.000000	0.000000	-0.000000	1.227352	0.309322	0.409202	0.000000	0.000000	0.000000	-0.000000	0.000000	0.000000	2.453873	0.081154	0.151633	0.000000	0.000000	0.000000	-0.000000	0.000000	0.000000	2.411247	0.087507	0.129523	0.000000	0.000000	0.000000	-0.000000	0.000000	0.000000	2.378879	0.086697	0.136038	0.000000	0.000000	0.000000	-0.000000	0.000000	0.000000	2.380670	0.081351	0.156012	0.000000	0.000000	0.000000	-0.000000	0.000000	0.000000	2.295937	0.099121	0.105573	0.000000	0.000000	0.000000	-0.000000	0.000000	0.000000	2.349105	0.087386	0.139445	0.000000	0.000000	0.000000	-0.000000	0.000000	0.000000	2.230009	0.090144	0.153073	0.000000	0.000000	0.000000
0.215063	-0.000000	0.000000	-0.000000	1.129599	0.216148	0.415608	0.000000	0.000000	0.000000	-0.000000	0.000000	-0.000000	1.154232	0.234935	0.436792	0.000000	0.000000	0.000000	-0.000000	0.000000	-0.000000	1.171515	0.243944	0.434549	0.000000	0.000000	0.000000	-0.000000	0.000000	-0.000000	1.168043	0.242675	0.412233	0.000000	0.000000	0.000000	-0.000000	0.000000	-0.000000	1.213230	0.281830	0.465266	0.000000	0.000000	0.000000	-0.000000	0.000000	-0.000000	1.184580	0.257209	0.429497	0.000000	0.000000	0.000000	-0.000000	0.000000	-0.000000	1.236840	0.310267	0.409293	0.000000	0.000000	0.000000	-0.000000	0.000000	0.000000	2.461137	0.080597	0.151472	0.000000	0.000000	0.000000	-0.000000	0.000000	0.000000	2.418506	0.086980	0.129407	0.000000	0.000000	0.000000	-0.000000	0.000000	0.000000	2.386185	0.086175	0.135896	0.000000	0.000000	0.000000	-0.000000	0.000000	0.000000	2.387978	0.080794	0.155832	0.000000	0.000000	0.000000	-0.000000	0.000000	0.000000	2.303230	0.098606	0.105479	0.000000	0.000000	0.000000	-0.000000	0.000000	0.000000	2.356408	0.086841	0.139293	0.000000	0.000000	0.000000	-0.000000	0.000000	0.000000	2.237298	0.089505	0.152880	0.000000	0.000000	0.000000
0.217106	-0.000000	0.000000	-0.000000	1.159289	0.219189	0.416555	0.000000	0.000000	0.000000	-0.000000	0.000000	-0.000000	1.184099	0.237957	0.437595	0.000000	0.000000	0.000000	-0.000000	0.000000	-0.000000	1.201418	0.246944	0.435262	0.000000	0.000000	0.000000	-0.000000	0.000000	-0.000000	1.197849	0.245666	0.412963	0.000000	0.000000	0.000000	-0.000000	0.000000	-0.000000	1.243442	0.284796	0.465721	0.000000	0.000000	0.000000	-0.000000	0.000000	-0.000000	1.214527	0.260189	0.430127	0.000000	0.000000	0.000000	-0.000000	0.000000	-0.000000	1.266963	0.313172	0.409588	0.000000	0.000000	0.000000	-0.000000	0.000000	0.000000	2.483577	0.078756	0.150943	0.000000	0.000000	0.000000	-0.000000	0.000000	0.000000	2.440930	0.085244	0.129032	0.000000	0.000000	0.000000	-0.000000	0.000000	0.000000	2.408760	0.084461	0.135447	0.000000	0.000000	0.000000	-0.000000	0.000000	0.000000	2.410560	0.078968	0.155260	0.000000	0.000000	0.000000	-0.000000	0.000000	0.000000	2.325767	0.096932	0.105199	0.000000	0.000000	0.000000	-0.000000	0.000000	0.000000	2.378974	0.085059	0.138816	0.000000	0.000000	0.000000	-0.000000	0.000000	0.000000	2.259829	0.087452	0.152292	0.000000	0.000000	0.000000
0.218586	-0.000000	0.000000	-0.000000	1.181018	0.221296	0.417273	0.000000	0.000000	0.000000	-0.000000	0.000000	-0.000000	1.205945	0.240057	0.438203	0.000000	0.000000	0.000000	-0.000000	0.000000	-0.000000	1.223281	0.249030	0.435801	0.000000	0.000000	0.000000	-0.000000	0.000000	-0.000000	1.219641	0.247744	0.413517	0.000000	0.000000	0.000000	-0.000000	0.000000	-0.000000	1.265503	0.286866	0.466066	0.000000	0.000000	0.000000	-0.000000	0.000000	-0.000000	1.236411	0.262264	0.430603	0.000000	0.000000	0.000000	-0.000000	0.000000	-0.000000	1.288933	0.315201	0.409810	0.000000	0.000000	0.000000	-0.000000	0.000000	0.000000	2.499358	0.077334	0.150550	0.000000	0.000000	0.000000	-0.000000	0.000000	0.000000	2.456700	0.083908	0.128764	0.000000	0.000000	0.000000	-0.000000	0.000000	0.000000	2.424645	0.083152	0.135132	0.000000	0.000000	0.000000	-0.000000	0.000000	0.000000	2.426449	0.077578	0.154854	0.000000	0.000000	0.000000	-0.000000	0.000000	0.000000	2.341629	0.095669	0.105024	0.000000	0.000000	0.000000	-0.000000	0.000000	0.000000	2.394853	0.083707	0.138486	0.000000	0.000000	0.000000	-0.000000	0.000000	0.000000	2.275688	0.085929	0.151901	0.000000	0.000000	0.000000
0.219232	-0.000000	0.000000	-0.000000	1.190562	0.222191	0.417593	0.000000	0.000000	0.000000	-0.000000	0.000000	-0.000000	1.215536	0.240950	0.438475	0.000000	0.000000	0.000000	-0.000000	0.000000	-0.000000	1.232878	0.249918	0.436043	0.000000	0.000000	0.000000	-0.000000	0.000000	-0.000000	1.229206	0.248629	0.413764	0.000000	0.000000	0.000000	-0.000000	0.000000	-0.000000	1.275179	0.287749	0.466219	0.000000	0.000000	0.000000	-0.000000	0.000000	-0.000000	1.246015	0.263148	0.430816	0.000000	0.000000	0.000000	-0.000000	0.000000	-0.000000	1.298562	0.316067	0.409909	0.000000	0.000000	0.000000	-0.000000	0.000000	0.000000	2.506124	0.076688	0.150380	0.000000	0.000000	0.000000	-0.000000	0.000000	0.000000	2.463462	0.083302	0.128651	0.000000	0.000000	0.000000	-0.000000	0.000000	0.000000	2.431458	0.082561	0.135000	0.000000	0.000000	0.000000	-0.000000	0.000000	0.000000	2.433264	0.076952	0.154682	0.000000	0.000000	0.000000	-0.000000	0.000000	0.000000	2.348434	0.095103	0.104956	0.000000	0.000000	0.000000	-0.000000	0.000000	0.000000	2.401665	0.083099	0.138348	0.000000	0.000000	0.000000	-0.000000	0.000000	0.000000	2.282493	0.085254	0.151741	0.000000	0.000000	0.000000
0.221274	-0.000000	0.000000	-0.000000	1.220931	0.224920	0.418633	0.000000	0.000000	0.000000	-0.000000	0.000000	-0.000000	1.246040	0.243677	0.439357	0.000000	0.000000	0.000000	-0.000000	0.000000	-0.000000	1.263394	0.252632	0.436827	0.000000	0.000000	0.000000	-0.000000	0.000000	-0.000000	1.259623	0.251331	0.414567	0.000000	0.000000	0.000000	-0.000000	0.000000	-0.000000	1.305917	0.290458	0.466720	0.000000	0.000000	0.000000	-0.000000	0.000000	-0.000000	1.276540	0.265850	0.431508	0.000000	0.000000	0.000000	-0.000000	0.000000	-0.000000	1.329127	0.318723	0.410234	0.000000	0.000000	0.000000	-0.000000	0.000000	0.000000	2.527007	0.074538	0.149853	0.000000	0.000000	0.000000	-0.000000	0.000000	0.000000	2.484333	0.081290	0.128315	0.000000	0.000000	0.000000	-0.000000	0.000000	0.000000	2.452500	0.080609	0.134613	0.000000	0.000000	0.000000	-0.000000	0.000000	0.000000	2.454310	0.074891	0.154170	0.000000	0.000000	0.000000	-0.000000	0.000000	0.000000	2.369457	0.093248	0.104786	0.000000	0.000000	0.000000	-0.000000	0.000000	0.000000	2.422702	0.081103	0.137949	0.000000	0.000000	0.000000	-0.000000	0.000000	0.000000	2.303512	0.083081	0.151293	0.000000	0.000000	0.000000
